<?xml version="1.0" encoding="UTF-8" standalone="no"?>
<!-- Created with Inkscape (http://www.inkscape.org/) -->

<svg
   version="1.1"
   id="svg1"
   width="528.70667"
   height="370.37332"
   viewBox="0 0 528.70667 370.37332"
   sodipodi:docname="yt_icon_red_digital.eps"
   xmlns:inkscape="http://www.inkscape.org/namespaces/inkscape"
   xmlns:sodipodi="http://sodipodi.sourceforge.net/DTD/sodipodi-0.dtd"
   xmlns="http://www.w3.org/2000/svg"
   xmlns:svg="http://www.w3.org/2000/svg">
  <defs
     id="defs1" />
  <sodipodi:namedview
     id="namedview1"
     pagecolor="#ffffff"
     bordercolor="#000000"
     borderopacity="0.25"
     inkscape:showpageshadow="2"
     inkscape:pageopacity="0.0"
     inkscape:pagecheckerboard="0"
     inkscape:deskcolor="#d1d1d1">
    <inkscape:page
       x="0"
       y="0"
       inkscape:label="1"
       id="page1"
       width="528.70667"
       height="370.37332"
       margin="0"
       bleed="0" />
  </sodipodi:namedview>
  <g
     id="g1"
     inkscape:groupmode="layer"
     inkscape:label="1">
    <g
       id="group-R5">
      <path
         id="path2"
         d="M 1587.28,793.648 2615.56,1390.33 1587.28,1984.11 Z M 434.48,84 C 263.578,130.352 130.34,266.48 81.1016,434.48 0,744.41 0,1390.33 0,1390.33 c 0,0 0,645.92 81.1016,952.95 49.2384,170.89 182.4764,304.14 353.3784,350.48 307.028,84 1546.73,84 1546.73,84 0,0 1242.61,0 1549.64,-84 173.79,-46.34 304.13,-179.59 350.49,-350.48 83.98,-307.03 83.98,-952.95 83.98,-952.95 0,0 0,-645.92 -83.98,-955.85 C 3834.98,266.48 3704.64,130.352 3530.85,84 3223.82,0 1981.21,0 1981.21,0 c 0,0 -1239.702,0 -1546.73,84"
         style="fill:#ed1838;fill-opacity:1;fill-rule:nonzero;stroke:none"
         transform="matrix(0.13333333,0,0,-0.13333333,0,370.37333)" />
      <path
         id="path3"
         d="M 1587.28,793.648 2615.56,1390.33 1587.28,1984.11 Z"
         style="fill:#ffffff;fill-opacity:1;fill-rule:nonzero;stroke:none"
         transform="matrix(0.13333333,0,0,-0.13333333,0,370.37333)" />
    </g>
  </g>
</svg>
